<svg width="159" height="159" viewBox="0 0 159 159" fill="none" xmlns="http://www.w3.org/2000/svg">
<path d="M80.1668 3.81681L87.0278 4.19038L86.9972 4.75235L80.1362 4.37878L80.1668 3.81681ZM83.3196 2.76867L83.999 2.80566L83.92 4.25672L83.2406 4.21972L83.3196 2.76867ZM81.1088 2.42958L86.3007 2.71226L86.2701 3.27423L81.0782 2.99154L81.1088 2.42958ZM81.2152 0.475272L86.3568 0.755216L86.3266 1.3088L81.8728 1.0663L81.7783 2.80253L81.0905 2.76508L81.2152 0.475272ZM83.5286 5.1103C84.3394 5.15445 84.9676 5.30922 85.413 5.57463C85.8587 5.83445 86.0697 6.18243 86.046 6.61859C86.0222 7.05474 85.7747 7.37776 85.3034 7.58765C84.8318 7.80313 84.1906 7.8888 83.3798 7.84465C82.569 7.8005 81.9381 7.64557 81.487 7.37986C81.0413 7.12004 80.8303 6.77206 80.854 6.3359C80.8778 5.89975 81.1253 5.57673 81.5966 5.36684C82.0738 5.15167 82.7178 5.06615 83.5286 5.1103ZM83.4906 5.65504C83.0991 5.63372 82.759 5.64885 82.4702 5.70043C82.1873 5.74671 81.9669 5.82726 81.8093 5.94205C81.6519 6.05126 81.5683 6.19533 81.5586 6.37427C81.5492 6.54761 81.6166 6.6999 81.7609 6.83114C81.9051 6.96238 82.1154 7.06636 82.3916 7.14309C82.6732 7.22572 83.0096 7.27769 83.4011 7.299C83.8037 7.32092 84.1466 7.30594 84.4298 7.25406C84.7183 7.20808 84.9414 7.12769 85.0991 7.0129C85.2568 6.8981 85.3404 6.75403 85.3498 6.58068C85.3595 6.40175 85.2921 6.24946 85.1475 6.12381C85.0033 5.99257 84.7902 5.88844 84.5084 5.8114C84.2324 5.72908 83.8932 5.67696 83.4906 5.65504Z" fill="#D05BFF"/>
<path d="M88.754 1.92082L92.4758 2.53211L92.3832 3.09575L88.6615 2.48447L88.754 1.92082ZM90.4448 3.28813C90.7598 3.33986 91.0243 3.45708 91.2383 3.63978C91.4578 3.82339 91.6153 4.0564 91.7108 4.33882C91.8072 4.6157 91.8277 4.92268 91.7724 5.25977C91.717 5.59685 91.5989 5.88391 91.4181 6.12094C91.2382 6.35244 91.0144 6.52282 90.7468 6.63209C90.4856 6.73674 90.1975 6.76319 89.8825 6.71146C89.573 6.66063 89.3085 6.54341 89.089 6.3598C88.8704 6.17067 88.7129 5.93766 88.6165 5.66077C88.521 5.37836 88.5009 5.06861 88.5563 4.73153C88.6116 4.39445 88.7293 4.11015 88.9092 3.87865C89.0891 3.64715 89.3124 3.47952 89.5791 3.37578C89.8468 3.26652 90.1353 3.2373 90.4448 3.28813ZM90.3495 3.86835C90.1616 3.83749 89.9821 3.85909 89.8111 3.93314C89.6464 4.00258 89.5058 4.11569 89.3893 4.27247C89.2792 4.42464 89.206 4.61124 89.1696 4.83228C89.1333 5.05331 89.1426 5.25629 89.1973 5.44121C89.2576 5.62704 89.3546 5.77918 89.4884 5.89762C89.6277 6.01698 89.7913 6.09208 89.9792 6.12294C90.1726 6.15471 90.3516 6.13588 90.5162 6.06644C90.6809 5.99701 90.8187 5.88344 90.9297 5.72575C91.0463 5.56897 91.1227 5.38006 91.159 5.15902C91.1953 4.93798 91.1829 4.73731 91.1217 4.55701C91.0669 4.37209 90.9727 4.22041 90.8389 4.10196C90.706 3.97799 90.5429 3.90012 90.3495 3.86835ZM94.6678 1.5727L95.3227 1.68026L94.0906 9.18175L93.4357 9.07419L94.6678 1.5727ZM92.9472 4.53338L94.3646 4.76619L94.2721 5.32983L92.8547 5.09703L92.9472 4.53338ZM93.0312 1.48265L93.6777 1.58884L92.5341 8.55155L91.8876 8.44536L93.0312 1.48265ZM90.4535 1.11034L91.1332 1.22198L90.9031 2.62281L90.2234 2.51117L90.4535 1.11034Z" fill="#D05BFF"/>
<path d="M99.4956 6.42557L100.167 6.61311L99.8552 7.72958L99.1837 7.54204L99.4956 6.42557ZM96.6407 5.21834L103.251 7.06436L103.099 7.60642L96.4893 5.76039L96.6407 5.21834ZM98.2913 2.61811L103.186 3.98512L102.562 6.21807L97.6677 4.85107L98.2913 2.61811ZM102.373 4.33381L98.7975 3.3351L98.4722 4.50012L102.048 5.49882L102.373 4.33381ZM97.0914 6.69604L102.051 8.08112L101.59 9.73157L97.302 8.53402L97.0534 9.42397L96.3981 9.24095L96.7845 7.85749L101.072 9.05503L101.251 8.41589L96.9468 7.21383L97.0914 6.69604ZM96.4433 9.07914L101.605 10.5207L101.458 11.0466L96.2964 9.60501L96.4433 9.07914Z" fill="#D05BFF"/>
<path d="M105.795 5.44879L108.976 6.72566L108.763 7.25574L105.582 5.97886L105.795 5.44879ZM106.084 7.90902L106.723 8.16565L105.765 10.551L105.126 10.2944L106.084 7.90902ZM108.711 6.61926L109.35 6.87589L109.196 7.25785C109.082 7.54368 108.921 7.91367 108.715 8.36785C108.513 8.8241 108.232 9.35981 107.87 9.97497L107.253 9.66377C107.613 9.06629 107.892 8.54462 108.089 8.09876C108.287 7.65289 108.442 7.28705 108.557 7.00122L108.711 6.61926ZM110.54 6.4578L111.187 6.71756L108.355 13.7722L107.708 13.5125L110.54 6.4578ZM109.825 9.59218L111.127 10.1148L110.905 10.6683L109.603 10.1456L109.825 9.59218ZM103.581 10.0631L103.719 9.49393C104.142 9.65774 104.604 9.83719 105.105 10.0323C105.613 10.2243 106.13 10.408 106.657 10.5833C107.19 10.7608 107.704 10.9159 108.2 11.0486L108.044 11.5475C107.525 11.4293 107 11.2852 106.471 11.115C105.947 10.9469 105.438 10.7726 104.943 10.5921C104.45 10.4063 103.996 10.23 103.581 10.0631Z" fill="#D05BFF"/>
<path d="M116.202 9.64369L116.776 9.97617L116.174 11.0157L117.577 11.828L118.179 10.7884L118.746 11.1167L116.97 14.1845L114.426 12.7115L116.202 9.64369ZM115.901 11.4883L115.282 12.5569L116.685 13.3692L117.304 12.3005L115.901 11.4883ZM121.116 11.9354L121.69 12.2679L119.405 16.2153L118.831 15.8829L121.116 11.9354ZM119.07 13.0221L120.306 13.7375L120.015 14.2391L118.779 13.5237L119.07 13.0221ZM119.634 11.2426L120.201 11.5708L118.013 15.351L117.446 15.0228L119.634 11.2426ZM114.772 14.0575L119.178 16.6079L117.886 18.8397L117.29 18.4946L118.296 16.7571L114.486 14.5518L114.772 14.0575Z" fill="#D05BFF"/>
<path d="M122.665 16.2928L126.755 19.2958L126.417 19.7562L122.327 16.7532L122.665 16.2928ZM120.976 16.9903L126.527 21.0672L126.189 21.5276L120.638 17.4507L120.976 16.9903ZM123.271 19.0722L123.827 19.4799L122.126 21.7955L121.571 21.3878L123.271 19.0722ZM124.072 14.3767L128.081 17.32L127.743 17.7804L124.303 15.2547L123.07 16.9339L122.501 16.5162L124.072 14.3767Z" fill="#D05BFF"/>
<path d="M131.549 20.2533L131.976 20.6449L131.346 21.3323C131.01 21.6997 130.635 21.9797 130.224 22.172C129.816 22.3603 129.392 22.462 128.953 22.4772C128.513 22.4924 128.082 22.4161 127.659 22.2483L127.754 21.5842C128.13 21.7462 128.51 21.8287 128.895 21.8317C129.283 21.8306 129.65 21.7531 129.997 21.5993C130.347 21.4493 130.654 21.2297 130.919 20.9407L131.549 20.2533ZM131.642 20.3384L132.057 20.7186L131.41 21.4246C131.236 21.6146 131.099 21.8306 130.998 22.0728C130.902 22.3188 130.84 22.5772 130.812 22.8479C130.792 23.1183 130.81 23.389 130.865 23.6601C130.929 23.9308 131.029 24.1979 131.168 24.4614L130.533 24.6318C130.334 24.2362 130.217 23.8251 130.182 23.3986C130.148 22.972 130.199 22.5556 130.336 22.1493C130.472 21.743 130.692 21.3747 130.995 21.0444L131.642 20.3384ZM134.32 22.1657L134.834 22.6367L131.043 26.7736L130.529 26.3026L134.32 22.1657ZM133.101 24.2046L134.085 25.1069L133.688 25.5405L132.704 24.6381L133.101 24.2046ZM126.717 24.507L130.445 27.9234L130.059 28.3445L126.331 24.9282L126.717 24.507ZM127.926 23.1879L128.446 23.6646L127.05 25.1881L126.529 24.7114L127.926 23.1879Z" fill="#D05BFF"/>
<path d="M140.43 28.7009L140.89 29.2247L135.173 34.2478L134.712 33.724L140.43 28.7009ZM137.803 26.6027C138.051 26.8846 138.187 27.2049 138.212 27.5636C138.244 27.9228 138.164 28.2946 137.973 28.679C137.785 29.0677 137.489 29.4394 137.085 29.7942C136.681 30.1491 136.275 30.3946 135.865 30.5308C135.459 30.6712 135.078 30.7041 134.722 30.6295C134.369 30.5591 134.069 30.383 133.822 30.1011C133.574 29.8193 133.436 29.4969 133.408 29.134C133.38 28.7711 133.46 28.3953 133.647 28.0066C133.839 27.6222 134.137 27.2526 134.54 26.8978C134.944 26.5429 135.349 26.2953 135.755 26.1549C136.165 26.0187 136.546 25.9897 136.898 26.068C137.254 26.1426 137.556 26.3209 137.803 26.6027ZM137.336 27.013C137.17 26.8237 136.961 26.7129 136.709 26.6808C136.465 26.6492 136.192 26.695 135.891 26.8184C135.593 26.938 135.291 27.1328 134.984 27.4026C134.677 27.6724 134.443 27.9489 134.282 28.2321C134.125 28.5117 134.044 28.7763 134.04 29.026C134.039 29.2799 134.122 29.5015 134.289 29.6909C134.451 29.876 134.657 29.9825 134.905 30.0104C135.157 30.0426 135.431 29.9988 135.729 29.8792C136.03 29.7558 136.335 29.5592 136.642 29.2894C136.949 29.0196 137.181 28.7449 137.338 28.4654C137.499 28.1822 137.578 27.9154 137.574 27.6652C137.578 27.4155 137.499 27.1981 137.336 27.013Z" fill="#D05BFF"/>
<path d="M143.527 33.9105L145.435 36.8281L141.329 39.5127L139.421 36.5951L143.527 33.9105ZM144.594 36.555L143.435 34.7833L140.265 36.8565L141.423 38.6282L144.594 36.555ZM146.815 37.5417L147.196 38.1253L140.833 42.2855L140.452 41.7019L146.815 37.5417ZM144.571 39.6512L145.338 40.8253L144.846 41.147L144.079 39.9729L144.571 39.6512Z" fill="#D05BFF"/>
<path d="M143.24 43.2646L146.36 49.4051L145.844 49.6677L142.723 43.5272L143.24 43.2646ZM148.51 41.5282L150.862 46.1561L148.803 47.2027L146.771 43.2039L145.423 43.8889L145.111 43.2749L146.96 42.3348L148.993 46.3336L150.041 45.8008L148.001 41.787L148.51 41.5282ZM145.365 43.1455L147.789 47.9156L147.288 48.1706L144.863 43.4005L145.365 43.1455Z" fill="#D05BFF"/>
<path d="M152.021 49.223L153.747 53.7971L153.212 53.9987L151.487 49.4246L152.021 49.223ZM146.906 50.3715L149.328 56.7926L148.786 56.9972L146.364 50.576L146.906 50.3715ZM150.387 51.9131L150.631 52.5576L147.817 53.619L147.574 52.9745L150.387 51.9131ZM153.652 53.5456L153.898 54.198L153.198 54.4618C152.905 54.5725 152.594 54.6839 152.265 54.796C151.938 54.9133 151.574 55.0267 151.172 55.1363C150.773 55.2511 150.318 55.3539 149.807 55.4447L149.637 54.7549C150.37 54.6342 150.996 54.4874 151.518 54.3147C152.044 54.14 152.523 53.9716 152.952 53.8095L153.652 53.5456Z" fill="#D05BFF"/>
<path d="M153.235 59.9597L153.362 60.5339C153.473 61.037 153.576 61.476 153.67 61.851C153.771 62.2301 153.874 62.5802 153.979 62.901C154.091 63.2262 154.219 63.5477 154.364 63.8656L153.84 64.067C153.693 63.7382 153.563 63.4085 153.45 63.0779C153.337 62.7473 153.229 62.3869 153.126 61.9968C153.023 61.6122 152.916 61.1656 152.804 60.657L152.677 60.0828L153.235 59.9597ZM155.803 59.3933L156.525 62.6662L155.975 62.7875L155.402 60.1872L153.146 60.6848L152.997 60.0122L155.803 59.3933ZM157.293 64.045L157.444 64.7258L153.752 65.5402L153.602 64.8593L157.293 64.045ZM155.802 64.89L156.085 66.1697L155.519 66.2945L155.236 65.0149L155.802 64.89ZM152.001 60.5245L152.515 62.8541L150.825 63.2269L150.458 61.5618L149.44 61.7861L149.297 61.1381L150.807 60.8052L151.174 62.4703L151.863 62.3183L151.492 60.6367L152.001 60.5245ZM149.519 61.0893L149.606 61.483C149.677 61.8056 149.741 62.0839 149.799 62.3179C149.863 62.5561 149.925 62.7745 149.986 62.9732C150.053 63.1708 150.132 63.3741 150.224 63.5831L149.712 63.7564C149.625 63.5461 149.547 63.3367 149.478 63.1283C149.41 62.9198 149.345 62.6932 149.285 62.4483C149.227 62.2089 149.161 61.9251 149.089 61.597L149.002 61.2033L149.519 61.0893ZM152.29 63.1617L152.974 66.2624L152.466 66.3746L151.782 63.2739L152.29 63.1617ZM151.821 64.8566C151.875 65.1027 151.883 65.3305 151.843 65.54C151.803 65.7495 151.718 65.923 151.588 66.0607C151.464 66.2027 151.299 66.2966 151.091 66.3424C150.774 66.4124 150.501 66.3464 150.273 66.1443C150.041 65.949 149.884 65.6682 149.803 65.3018C149.75 65.0611 149.743 64.8361 149.783 64.6266C149.818 64.4183 149.899 64.2399 150.026 64.0912C150.155 63.9481 150.324 63.8536 150.532 63.8078C150.734 63.7631 150.924 63.7786 151.101 63.8542C151.279 63.9352 151.431 64.0624 151.555 64.2357C151.679 64.409 151.768 64.616 151.821 64.8566ZM151.345 64.9616C151.301 64.7592 151.215 64.6033 151.087 64.4938C150.966 64.3885 150.824 64.354 150.66 64.3901C150.491 64.4275 150.373 64.5194 150.308 64.6657C150.238 64.8186 150.226 64.9963 150.271 65.1986C150.317 65.4064 150.403 65.5623 150.529 65.6664C150.649 65.7717 150.795 65.8056 150.964 65.7682C151.128 65.732 151.243 65.6408 151.308 65.4945C151.379 65.347 151.391 65.1694 151.345 64.9616ZM153.219 64.2128L153.365 64.8772L152.381 65.0943L152.234 64.4299L153.219 64.2128Z" fill="#D05BFF"/>
<path d="M154.495 68.6286L155.061 73.8142L154.502 73.8753L153.936 68.6897L154.495 68.6286ZM151.904 68.0326L152.651 74.88L152.075 74.9428L151.327 68.0955L151.904 68.0326ZM154.493 70.8512L154.567 71.5359L152.087 71.8066L152.013 71.1218L154.493 70.8512ZM157.426 68.3088L157.984 73.4192L157.408 73.4821L156.926 69.0647L154.32 69.349L154.245 68.6559L157.426 68.3088Z" fill="#D05BFF"/>
<path d="M154.594 76.0401L154.594 82.9281L154.023 82.9281L154.023 76.0401L154.594 76.0401ZM158.584 76.9136L158.584 82.046L156.736 82.046L156.736 77.6192L155.72 77.6193L155.72 76.9305L157.257 76.9304L157.257 81.3572L158.03 81.3572L158.03 76.9136L158.584 76.9136ZM155.947 76.9305L155.947 82.2057L155.392 82.2057L155.392 76.9305L155.947 76.9305ZM155.661 79.1397L155.661 79.8285L154.317 79.8285L154.317 79.1397L155.661 79.1397ZM153.444 76.8129L153.444 82.0881L151.251 82.0881L151.251 81.3909L152.881 81.3909L152.881 76.8129L153.444 76.8129Z" fill="#D05BFF"/>
<path d="M157.735 92.49L157.638 93.1719L150.112 92.097L150.21 91.4151L157.735 92.49ZM154.567 92.572L154.369 93.9607L153.787 93.8776L153.985 92.4889L154.567 92.572ZM157.264 87.1787L156.631 91.6109L156.065 91.5302L156.698 87.0979L157.264 87.1787ZM155.761 89.2636C155.71 89.6184 155.591 89.9209 155.402 90.1712C155.213 90.427 154.977 90.6139 154.694 90.7319C154.416 90.8562 154.108 90.8943 153.77 90.846C153.432 90.7977 153.144 90.6745 152.906 90.4765C152.668 90.2841 152.494 90.0386 152.384 89.74C152.278 89.4478 152.251 89.1243 152.302 88.7695C152.352 88.4147 152.469 88.109 152.653 87.8524C152.842 87.6021 153.078 87.4152 153.361 87.2917C153.645 87.1681 153.956 87.1305 154.294 87.1788C154.632 87.2271 154.917 87.3498 155.149 87.547C155.387 87.745 155.561 87.9905 155.672 88.2835C155.782 88.5821 155.812 88.9088 155.761 89.2636ZM155.187 89.1816C155.22 88.9543 155.199 88.7449 155.124 88.5532C155.05 88.3616 154.934 88.2008 154.777 88.0709C154.62 87.9466 154.427 87.8682 154.2 87.8357C153.973 87.8033 153.763 87.8242 153.571 87.8987C153.385 87.9795 153.229 88.1014 153.103 88.2646C152.984 88.4285 152.908 88.6242 152.875 88.8514C152.844 89.0732 152.862 89.2795 152.931 89.4704C153.006 89.662 153.122 89.82 153.279 89.9443C153.442 90.075 153.636 90.1566 153.864 90.189C154.091 90.2215 154.298 90.1973 154.485 90.1166C154.671 90.0413 154.827 89.9221 154.952 89.759C155.077 89.5958 155.155 89.4034 155.187 89.1816ZM158.107 89.2338L158.008 89.924L156.645 89.7292L156.743 89.039L158.107 89.2338Z" fill="#D05BFF"/>
<path d="M153.613 95.8783L152.307 100.972L151.746 100.828L153.052 95.7343L153.613 95.8783ZM151.365 94.4345L149.654 101.107L149.084 100.961L150.795 94.2885L151.365 94.4345ZM156.299 96.5668L156.125 97.2421L153.188 96.4889L153.361 95.8136L156.299 96.5668Z" fill="#D05BFF"/>
<path d="M152.958 109.442L152.712 110.094L148.687 108.577L148.934 107.924L152.958 109.442ZM154.326 104.554L154.08 105.206L151.187 104.115L151.433 103.463L154.326 104.554ZM151.795 103.599L151.579 104.173C151.353 104.77 151.161 105.35 151.003 105.913C150.845 106.475 150.719 107.062 150.626 107.674L150.048 107.564C150.149 106.931 150.278 106.328 150.435 105.752C150.597 105.179 150.795 104.583 151.028 103.965L151.245 103.391L151.795 103.599ZM150.073 103.856L148.342 108.446L145.701 107.45L147.432 102.86L150.073 103.856ZM148.066 107.606L149.314 104.297L147.719 103.695L146.471 107.004L148.066 107.606Z" fill="#D05BFF"/>
<path d="M149.265 117.247L148.95 117.869L142.165 114.421L142.481 113.799L149.265 117.247ZM150.241 114.03C150.071 114.365 149.824 114.61 149.5 114.766C149.178 114.929 148.803 114.993 148.375 114.957C147.944 114.927 147.49 114.79 147.01 114.546C146.531 114.303 146.152 114.016 145.874 113.686C145.593 113.361 145.421 113.02 145.358 112.661C145.293 112.307 145.345 111.963 145.515 111.629C145.685 111.294 145.934 111.047 146.26 110.886C146.587 110.726 146.966 110.66 147.396 110.691C147.824 110.726 148.278 110.866 148.757 111.109C149.236 111.353 149.616 111.637 149.897 111.962C150.176 112.292 150.344 112.635 150.401 112.991C150.464 113.349 150.411 113.696 150.241 114.03ZM149.686 113.749C149.801 113.524 149.826 113.289 149.762 113.043C149.701 112.805 149.558 112.568 149.331 112.334C149.11 112.102 148.817 111.893 148.453 111.708C148.088 111.523 147.745 111.408 147.422 111.363C147.104 111.321 146.828 111.345 146.595 111.433C146.359 111.527 146.184 111.686 146.07 111.911C145.958 112.13 145.935 112.36 146.001 112.601C146.065 112.847 146.207 113.086 146.429 113.318C146.655 113.552 146.95 113.762 147.315 113.947C147.679 114.133 148.02 114.246 148.338 114.288C148.661 114.333 148.938 114.307 149.169 114.211C149.402 114.123 149.575 113.968 149.686 113.749Z" fill="#D05BFF"/>
<path d="M141.423 118.754L137.464 124.39L136.99 124.057L140.949 118.421L141.423 118.754ZM141.143 122.324L140.747 122.888L139.118 121.744L139.514 121.18L141.143 122.324ZM145.476 122.586L145.075 123.156L143.968 122.379L141.747 125.541L142.854 126.318L142.458 126.882L139.276 124.647L142.293 120.35L145.476 122.586ZM143.501 122.051L142.36 121.249L140.139 124.411L141.28 125.213L143.501 122.051Z" fill="#D05BFF"/>
<path d="M138.068 126.377L133.522 131.551L133.086 131.169L137.633 125.994L138.068 126.377ZM135.768 128.46L135.314 128.977L133.136 127.064L133.591 126.547L135.768 128.46ZM138.848 131.623C138.497 132.023 138.137 132.326 137.77 132.532C137.406 132.742 137.056 132.848 136.719 132.85C136.386 132.856 136.091 132.746 135.834 132.521C135.582 132.299 135.435 132.021 135.394 131.686C135.352 131.352 135.412 130.991 135.573 130.603C135.735 130.216 135.991 129.822 136.342 129.422C136.686 129.031 137.041 128.728 137.409 128.514C137.772 128.304 138.122 128.198 138.459 128.196C138.797 128.194 139.091 128.304 139.344 128.526C139.6 128.752 139.747 129.03 139.785 129.361C139.826 129.695 139.766 130.056 139.605 130.444C139.444 130.839 139.191 131.232 138.848 131.623ZM138.425 131.252C138.676 130.966 138.866 130.682 138.995 130.4C139.12 130.122 139.173 129.866 139.153 129.634C139.139 129.404 139.047 129.216 138.879 129.068C138.706 128.916 138.503 128.846 138.27 128.857C138.041 128.872 137.796 128.959 137.537 129.119C137.274 129.283 137.016 129.508 136.765 129.794C136.506 130.088 136.315 130.375 136.19 130.653C136.065 130.93 136.01 131.184 136.025 131.413C136.044 131.646 136.139 131.838 136.312 131.99C136.48 132.138 136.679 132.204 136.908 132.189C137.142 132.178 137.388 132.093 137.647 131.933C137.907 131.774 138.166 131.547 138.425 131.252Z" fill="#D05BFF"/>
<path d="M131.766 139.156L131.258 139.622L126.122 134.017L126.63 133.552L131.766 139.156ZM129.265 137.21L128.231 138.158L127.833 137.724L128.868 136.777L129.265 137.21ZM134.77 134.751L131.47 137.776L131.084 137.355L134.385 134.33L134.77 134.751ZM132.286 135.41C132.022 135.652 131.738 135.81 131.433 135.884C131.125 135.962 130.824 135.956 130.53 135.868C130.236 135.788 129.974 135.622 129.743 135.37C129.513 135.118 129.368 134.841 129.31 134.537C129.248 134.237 129.269 133.936 129.373 133.636C129.477 133.343 129.661 133.076 129.925 132.834C130.19 132.591 130.474 132.429 130.779 132.348C131.083 132.274 131.384 132.279 131.682 132.363C131.979 132.447 132.244 132.616 132.474 132.867C132.705 133.119 132.848 133.395 132.902 133.695C132.96 133.998 132.939 134.299 132.839 134.596C132.735 134.896 132.551 135.168 132.286 135.41ZM131.895 134.982C132.064 134.827 132.181 134.652 132.245 134.457C132.309 134.261 132.321 134.064 132.282 133.864C132.239 133.668 132.14 133.485 131.985 133.316C131.83 133.146 131.655 133.03 131.459 132.966C131.264 132.91 131.066 132.905 130.866 132.952C130.669 133.003 130.486 133.106 130.317 133.261C130.152 133.412 130.035 133.583 129.968 133.775C129.904 133.97 129.893 134.166 129.936 134.362C129.979 134.566 130.078 134.753 130.233 134.922C130.388 135.091 130.563 135.204 130.759 135.26C130.951 135.32 131.146 135.326 131.347 135.28C131.547 135.233 131.73 135.134 131.895 134.982ZM134.119 136.875L133.605 137.346L132.674 136.33L133.188 135.859L134.119 136.875Z" fill="#D05BFF"/>
<path d="M127.243 142.016L126.783 142.354L125.977 141.258C125.729 140.919 125.528 140.556 125.375 140.168C125.218 139.783 125.111 139.392 125.056 138.995C125 138.598 124.995 138.213 125.041 137.839C125.086 137.466 125.182 137.124 125.33 136.814L126.008 137.014C125.865 137.293 125.769 137.596 125.718 137.925C125.667 138.262 125.66 138.607 125.698 138.961C125.736 139.316 125.817 139.659 125.943 139.99C126.067 140.33 126.232 140.64 126.438 140.92L127.243 142.016ZM127.142 142.091L126.688 142.424L125.882 141.327C125.684 141.056 125.448 140.816 125.176 140.606C124.899 140.399 124.602 140.232 124.285 140.103C123.968 139.974 123.65 139.886 123.329 139.836C123.003 139.791 122.692 139.793 122.396 139.844L122.413 139.143C122.742 139.09 123.086 139.094 123.445 139.157C123.799 139.223 124.152 139.336 124.505 139.494C124.856 139.66 125.189 139.867 125.503 140.115C125.816 140.372 126.094 140.665 126.336 140.994L127.142 142.091ZM124.984 144.488L124.422 144.901L119.922 138.774L120.484 138.361L124.984 144.488ZM122.731 142.329L121.6 143.159L121.247 142.678L122.378 141.848L122.731 142.329Z" fill="#D05BFF"/>
<path d="M117.811 144.027L111.738 147.277L111.464 146.766L117.537 143.516L117.811 144.027ZM114.926 145.17L114.319 145.495L112.952 142.94L113.559 142.615L114.926 145.17ZM116.7 149.214C116.231 149.465 115.788 149.622 115.371 149.686C114.957 149.756 114.592 149.732 114.276 149.615C113.962 149.504 113.724 149.297 113.563 148.996C113.405 148.7 113.365 148.388 113.443 148.06C113.522 147.732 113.705 147.415 113.992 147.109C114.279 146.803 114.657 146.524 115.126 146.273C115.585 146.028 116.024 145.869 116.443 145.797C116.857 145.728 117.222 145.752 117.539 145.868C117.855 145.985 118.093 146.191 118.251 146.487C118.412 146.789 118.452 147.101 118.371 147.424C118.292 147.751 118.11 148.068 117.822 148.374C117.533 148.688 117.159 148.968 116.7 149.214ZM116.434 148.717C116.77 148.538 117.047 148.338 117.267 148.119C117.481 147.903 117.62 147.682 117.684 147.458C117.751 147.238 117.731 147.029 117.626 146.832C117.517 146.629 117.352 146.492 117.129 146.421C116.91 146.354 116.65 146.35 116.351 146.409C116.047 146.47 115.727 146.59 115.392 146.77C115.046 146.955 114.766 147.155 114.551 147.372C114.337 147.588 114.196 147.806 114.13 148.026C114.066 148.251 114.088 148.464 114.197 148.667C114.302 148.864 114.465 148.996 114.685 149.063C114.907 149.134 115.168 149.141 115.467 149.082C115.766 149.024 116.088 148.902 116.434 148.717Z" fill="#D05BFF"/>
<path d="M107.038 153.931L106.399 154.187L103.563 147.125L104.202 146.868L107.038 153.931ZM109.835 147.213L109.251 147.448C108.85 147.609 108.468 147.768 108.103 147.927C107.735 148.093 107.369 148.27 107.004 148.459C106.634 148.649 106.255 148.862 105.866 149.097L105.591 148.592C106.183 148.233 106.753 147.923 107.299 147.661C107.848 147.405 108.427 147.154 109.035 146.91L109.619 146.675L109.835 147.213ZM111.522 151.37L108.264 152.678L107.253 150.16L109.841 149.121L109.099 147.274L109.754 147.011L110.705 149.38L108.117 150.419L108.706 151.885L111.309 150.84L111.522 151.37Z" fill="#D05BFF"/>
<path d="M95.3738 154.169L94.0189 154.499L93.8819 153.936L95.2369 153.606L95.3738 154.169ZM96.5883 156.995L95.9108 157.16L94.1164 149.781L94.7939 149.616L96.5883 156.995ZM101.113 155.125L100.444 155.288L99.3321 150.717L100.001 150.554L101.113 155.125ZM100.087 150.905L99.4991 151.048C98.9604 151.179 98.4141 151.338 97.8601 151.525C97.3006 151.713 96.7314 151.943 96.1524 152.217L95.9318 151.665C96.5326 151.386 97.1154 151.152 97.6803 150.963C98.2411 150.781 98.8017 150.621 99.3622 150.485L99.9498 150.342L100.087 150.905Z" fill="#D05BFF"/>
<path d="M88.0874 158.389L87.4044 158.478L86.4203 150.931L87.1033 150.842L88.0874 158.389ZM87.1727 155.467L85.7817 155.648L85.7056 155.065L87.0966 154.884L87.1727 155.467ZM92.2139 152.616L91.6142 152.694C91.1477 152.755 90.7209 152.816 90.3336 152.878C89.9415 152.946 89.5644 153.02 89.2022 153.101C88.8408 153.188 88.476 153.292 88.1078 153.414L87.9673 152.856C88.3466 152.733 88.7197 152.628 89.0867 152.541C89.4482 152.454 89.8277 152.376 90.2253 152.307C90.623 152.239 91.0606 152.173 91.5381 152.111L92.1379 152.033L92.2139 152.616ZM92.8106 157.061L89.4121 157.504L89.0591 154.797L91.7579 154.445L91.5005 152.471L92.1835 152.382L92.5159 154.931L89.8171 155.283L90.0213 156.849L92.7367 156.495L92.8106 157.061Z" fill="#D05BFF"/>
<path d="M81.5778 158.181L78.0837 158.139L78.1268 154.628L81.6209 154.671L81.5778 158.181ZM78.7709 157.584L80.9044 157.61L80.9336 155.225L78.8002 155.199L78.7709 157.584ZM76.6809 158.81L75.9838 158.802L76.0521 153.233L76.7493 153.241L76.6809 158.81ZM76.2305 156.494L74.895 156.478L74.9021 155.899L76.2376 155.915L76.2305 156.494ZM80.7969 151.997L75.732 151.935L75.739 151.364L80.8039 151.426L80.7969 151.997ZM80.7745 153.82L80.0857 153.812L80.1111 151.745L80.7998 151.754L80.7745 153.82Z" fill="#D05BFF"/>
<path d="M70.5473 155.608L69.0964 155.431L69.1663 154.856L70.6172 155.032L70.5473 155.608ZM71.7061 157.771L71.1641 157.705L71.3393 156.262C71.3866 155.873 71.4749 155.495 71.6042 155.127C71.728 154.758 71.888 154.417 72.0842 154.102C72.2748 153.787 72.4947 153.509 72.7439 153.268C72.9932 153.028 73.2641 152.841 73.5568 152.707L73.9276 153.277C73.6529 153.401 73.3986 153.568 73.1645 153.776C72.9305 153.985 72.7264 154.225 72.5523 154.497C72.372 154.774 72.2264 155.067 72.1156 155.375C71.9986 155.688 71.9205 156.006 71.8814 156.328L71.7061 157.771ZM71.5727 157.754L71.039 157.69L71.2112 156.272C71.2477 155.972 71.2512 155.665 71.2216 155.351C71.1858 155.042 71.1209 154.741 71.0268 154.447C70.9265 154.159 70.7929 153.889 70.626 153.637C70.4591 153.385 70.2625 153.17 70.0361 152.99L70.4929 152.504C70.745 152.704 70.9612 152.944 71.1413 153.226C71.3208 153.513 71.4633 153.826 71.5686 154.166C71.6733 154.512 71.7398 154.87 71.7682 155.24C71.7966 155.61 71.7888 155.976 71.7449 156.337L71.5727 157.754ZM67.4423 157.972L66.7752 157.891L67.6921 150.344L68.3592 150.425L67.4423 157.972ZM68.9958 158L68.3454 157.921L69.1965 150.916L69.8469 150.995L68.9958 158Z" fill="#D05BFF"/>
<path d="M63.2001 152.746L56.5498 150.953L56.6985 150.401L63.3488 152.195L63.2001 152.746ZM60.3155 151.603L59.6505 151.424L60.3877 148.69L61.0527 148.87L60.3155 151.603ZM61.3094 156.369L56.3622 155.035L57.1344 152.172L62.0816 153.506L61.3094 156.369ZM57.1738 154.671L60.7991 155.648L61.2803 153.864L57.6551 152.886L57.1738 154.671Z" fill="#D05BFF"/>
<path d="M53.0367 154.037L48.484 152.255L48.6891 151.731L53.2418 153.513L53.0367 154.037ZM54.8389 151.828L48.4245 149.318L48.6327 148.786L55.0471 151.297L54.8389 151.828ZM52.115 150.33L51.4736 150.079L52.046 148.616L52.6874 148.867L52.115 150.33ZM48.9064 152.421L48.265 152.17L48.464 151.661C48.5782 151.369 48.7172 151.045 48.881 150.688C49.0447 150.331 49.2778 149.935 49.5802 149.5L50.1863 149.818C49.8859 150.248 49.6605 150.632 49.5101 150.97C49.3526 151.311 49.2176 151.625 49.1054 151.912L48.9064 152.421ZM52.281 148.96C51.5196 148.662 50.9674 148.314 50.6244 147.915C50.2741 147.52 50.1805 147.113 50.3438 146.696C50.5071 146.279 50.8516 146.044 51.3774 145.991C51.9 145.931 52.542 146.05 53.3034 146.348C54.07 146.648 54.6274 146.998 54.9757 147.399C55.3208 147.793 55.4117 148.198 55.2484 148.615C55.0852 149.032 54.7433 149.268 54.2227 149.323C53.6948 149.381 53.0476 149.26 52.281 148.96ZM52.4861 148.436C52.8616 148.583 53.1972 148.678 53.4928 148.722C53.7885 148.765 54.0318 148.758 54.2227 148.701C54.4084 148.641 54.5339 148.528 54.5992 148.361C54.6645 148.194 54.6492 148.026 54.5533 147.856C54.4522 147.684 54.2783 147.514 54.0316 147.345C53.7849 147.177 53.4738 147.019 53.0983 146.872C52.7228 146.725 52.3899 146.631 52.0994 146.589C51.8038 146.546 51.5631 146.554 51.3774 146.613C51.1865 146.671 51.0584 146.783 50.9931 146.95C50.9278 147.117 50.9457 147.286 51.0468 147.458C51.1427 147.628 51.314 147.797 51.5607 147.966C51.8022 148.133 52.1106 148.289 52.4861 148.436Z" fill="#D05BFF"/>
<path d="M46.0663 146.493L45.4487 146.169L46.0217 145.075L46.6392 145.399L46.0663 146.493ZM41.1378 149.022L40.5202 148.699L44.0478 141.965L44.6653 142.288L41.1378 149.022ZM42.2104 145.943L40.9678 145.292L41.2407 144.771L42.4833 145.422L42.2104 145.943ZM48.5487 145.953L48.3726 146.525C47.9658 146.312 47.5231 146.083 47.0442 145.839C46.5579 145.597 46.0564 145.359 45.5398 145.126C45.0232 144.894 44.5148 144.687 44.0147 144.508L44.2079 144.03C44.7332 144.198 45.2568 144.393 45.7786 144.616C46.2954 144.836 46.7896 145.064 47.2611 145.298C47.7276 145.53 48.1568 145.748 48.5487 145.953ZM46.098 150.577L42.08 148.473L42.3411 147.974L46.3592 150.079L46.098 150.577ZM44.5454 148.636C44.2329 148.472 43.9849 148.276 43.8013 148.047C43.6178 147.818 43.5084 147.574 43.4732 147.315C43.4354 147.062 43.4828 146.808 43.6153 146.555C43.7453 146.307 43.9266 146.124 44.1593 146.006C44.3919 145.887 44.6546 145.839 44.9473 145.859C45.2374 145.885 45.5387 145.979 45.8512 146.143C46.1637 146.307 46.4155 146.502 46.6066 146.728C46.7901 146.957 46.8995 147.201 46.9347 147.46C46.9649 147.716 46.9151 147.968 46.7852 148.216C46.6526 148.469 46.4738 148.653 46.2487 148.769C46.016 148.888 45.7533 148.937 45.4606 148.916C45.163 148.893 44.8579 148.799 44.5454 148.636ZM44.7988 148.152C45.1014 148.311 45.3808 148.368 45.6371 148.326C45.8934 148.283 46.0826 148.145 46.2048 147.912C46.3243 147.684 46.3287 147.452 46.2179 147.217C46.1071 146.982 45.9004 146.785 45.5978 146.627C45.3002 146.471 45.0232 146.414 44.7669 146.457C44.5106 146.5 44.3227 146.635 44.2032 146.863C44.081 147.096 44.0754 147.331 44.1861 147.566C44.2969 147.801 44.5011 147.996 44.7988 148.152ZM43.9731 150.488L43.3555 150.165L43.948 149.034L44.5656 149.357L43.9731 150.488Z" fill="#D05BFF"/>
<path d="M34.5793 144.503L34.1092 144.164L34.5513 143.551C34.8362 143.156 35.1702 142.841 35.5534 142.606C35.9366 142.371 36.3454 142.221 36.7799 142.154C37.2144 142.088 37.6557 142.113 38.1037 142.229L38.0793 142.894C37.6807 142.787 37.2903 142.754 36.9079 142.796C36.5256 142.838 36.1733 142.953 35.8508 143.142C35.5206 143.331 35.2441 143.581 35.0215 143.89L34.5793 144.503ZM34.4771 144.429L34.0206 144.1L34.4529 143.501C34.6068 143.287 34.7195 143.054 34.7909 142.802C34.8577 142.546 34.8875 142.285 34.8802 142.017C34.8697 141.754 34.821 141.491 34.7343 141.229C34.643 140.963 34.5156 140.708 34.3519 140.466L34.971 140.239C35.2064 140.602 35.3639 140.992 35.4434 141.408C35.523 141.825 35.5202 142.24 35.435 142.655C35.3466 143.075 35.1714 143.466 34.9094 143.83L34.4771 144.429ZM31.6483 142.866L31.0827 142.459L33.6813 138.854L34.2468 139.262L31.6483 142.866ZM32.3447 141.038L31.2817 140.272L31.6207 139.802L32.6836 140.568L32.3447 141.038ZM37.7579 141.358L33.8876 138.568L35.4694 136.374L39.3397 139.164L37.7579 141.358ZM34.7755 138.514L37.5351 140.504L38.4537 139.229L35.6941 137.24L34.7755 138.514Z" fill="#D05BFF"/>
<path d="M28.4612 138.437L28.0368 138.055L28.2897 137.774C28.5932 137.437 28.9406 137.181 29.3319 137.006C29.7195 136.835 30.1275 136.75 30.5558 136.751C30.9799 136.749 31.4007 136.834 31.8182 137.006L31.7088 137.643C31.3475 137.483 30.9823 137.399 30.6131 137.391C30.2397 137.379 29.8898 137.437 29.5635 137.565C29.2333 137.697 28.9502 137.894 28.7142 138.156L28.4612 138.437ZM28.3738 138.359L27.9494 137.976L28.2023 137.695C28.4234 137.45 28.5768 137.162 28.6627 136.833C28.7406 136.503 28.7484 136.16 28.686 135.802C28.6237 135.445 28.4943 135.095 28.2979 134.752L28.9192 134.577C29.1376 134.962 29.2755 135.361 29.3329 135.775C29.3865 136.192 29.3562 136.598 29.242 136.993C29.1241 137.391 28.9191 137.753 28.6268 138.078L28.3738 138.359ZM29.4349 139.879L26.4199 137.164L26.7965 136.746L29.8115 139.461L29.4349 139.879ZM27.5338 139.467L27.0157 139.001L27.8026 138.127L28.3207 138.593L27.5338 139.467ZM27.4958 136.359L26.0726 135.077L26.466 134.64L27.8893 135.922L27.4958 136.359ZM24.7903 137.053L24.2722 136.587L28.0662 132.373L28.5843 132.84L24.7903 137.053ZM32.4606 134.736L28.7027 131.353L29.0849 130.928L32.8428 134.312L32.4606 134.736ZM31.3308 135.991L30.8189 135.53L32.151 134.051L32.6629 134.512L31.3308 135.991Z" fill="#D05BFF"/>
<path d="M18.8692 130.802L18.4101 130.288L24.0832 125.215L24.5424 125.729L18.8692 130.802ZM26.1376 131.142L25.7177 130.673C25.4303 130.351 25.1499 130.046 24.8765 129.757C24.5952 129.468 24.3037 129.184 24.002 128.905C23.6966 128.622 23.3674 128.338 23.0145 128.053L23.3955 127.622C23.9344 128.057 24.42 128.486 24.8524 128.911C25.2806 129.339 25.713 129.798 26.1498 130.286L26.5697 130.756L26.1376 131.142ZM22.8051 134.145L20.4646 131.527L22.4872 129.719L24.3461 131.798L25.8301 130.471L26.3005 130.997L24.3969 132.699L22.538 130.62L21.3607 131.673L23.2309 133.764L22.8051 134.145Z" fill="#D05BFF"/>
<path d="M17.9454 122.159L17.5588 121.579L18.5864 120.894L18.973 121.474L17.9454 122.159ZM12.4077 122.014L12.021 121.433L18.3471 117.218L18.7337 117.798L12.4077 122.014ZM14.8264 119.826L14.0484 118.659L14.5378 118.333L15.3157 119.5L14.8264 119.826ZM20.3822 122.877L19.9535 123.294C19.6988 122.912 19.4201 122.499 19.1173 122.055C18.8068 121.609 18.4807 121.16 18.1391 120.708C17.7975 120.256 17.4504 119.831 17.0979 119.433L17.4964 119.107C17.8768 119.506 18.2425 119.929 18.5934 120.375C18.9413 120.816 19.2658 121.252 19.567 121.684C19.8652 122.111 20.1369 122.509 20.3822 122.877ZM16.0134 125.758L13.498 121.984L13.9663 121.671L16.4817 125.446L16.0134 125.758ZM15.5829 123.31C15.3872 123.016 15.2638 122.725 15.2126 122.436C15.1614 122.147 15.1824 121.881 15.2757 121.637C15.3642 121.396 15.5274 121.196 15.765 121.038C15.998 120.883 16.245 120.809 16.5059 120.817C16.7668 120.825 17.0208 120.908 17.2677 121.066C17.51 121.228 17.7289 121.456 17.9246 121.749C18.1202 122.043 18.2475 122.335 18.3065 122.625C18.3577 122.914 18.3366 123.18 18.2434 123.424C18.1471 123.663 17.9824 123.861 17.7494 124.016C17.5117 124.174 17.2663 124.25 17.0131 124.244C16.7522 124.236 16.4983 124.153 16.2514 123.995C16.0013 123.832 15.7785 123.603 15.5829 123.31ZM16.0372 123.007C16.2267 123.291 16.4441 123.476 16.6894 123.561C16.9348 123.647 17.167 123.617 17.3861 123.471C17.6004 123.328 17.7154 123.127 17.731 122.867C17.7466 122.608 17.6596 122.336 17.4702 122.052C17.2839 121.772 17.068 121.59 16.8226 121.504C16.5772 121.419 16.3474 121.447 16.133 121.59C15.914 121.736 15.7967 121.939 15.7811 122.198C15.7655 122.458 15.8509 122.727 16.0372 123.007ZM14.1918 124.661L13.8051 124.08L14.8676 123.372L15.2543 123.953L14.1918 124.661Z" fill="#D05BFF"/>
<path d="M8.00225 114.145L7.68476 113.534L14.4385 110.026L14.756 110.637L8.00225 114.145ZM10.227 114.674L9.45269 113.183L9.96705 112.916L10.7414 114.407L10.227 114.674ZM15.0964 116.395L14.837 115.896C14.6537 115.543 14.4758 115.212 14.3032 114.905C14.1257 114.599 13.9432 114.296 13.7557 113.996C13.5607 113.694 13.3468 113.385 13.1141 113.071L13.6013 112.751C13.8393 113.076 14.057 113.392 14.2546 113.699C14.4496 114.002 14.6347 114.31 14.8098 114.622C14.985 114.935 15.1655 115.271 15.3513 115.629L15.6107 116.128L15.0964 116.395ZM11.0527 118.524L9.52339 115.579L11.9386 114.325L13.1389 116.636L14.8982 115.722L15.2156 116.333L12.9495 117.51L11.7453 115.192L10.3439 115.92L11.5597 118.261L11.0527 118.524ZM12.0915 113.763L11.3172 112.272L11.8315 112.005L12.6059 113.495L12.0915 113.763Z" fill="#D05BFF"/>
<path d="M4.7811 106.5L4.5293 105.85L8.76696 104.209L9.01876 104.859L4.7811 106.5ZM6.432 105.32L5.95873 104.099L6.49921 103.889L6.97248 105.111L6.432 105.32ZM6.06437 108.255L5.79739 107.566C6.39792 107.333 6.9952 107.255 7.58922 107.331C8.18323 107.408 8.75386 107.625 9.3011 107.984C9.84631 108.337 10.3506 108.817 10.814 109.424L10.3923 109.894C9.9822 109.362 9.5506 108.938 9.09754 108.621C8.64448 108.304 8.18547 108.103 7.72049 108.019C7.25349 107.93 6.79806 107.971 6.35419 108.143L6.06437 108.255ZM7.06249 110.832L5.92178 107.887L6.45442 107.681L7.59513 110.626L7.06249 110.832ZM9.71472 106.4C9.53269 105.93 9.42977 105.502 9.40594 105.115C9.38212 104.727 9.43824 104.399 9.57431 104.13C9.70515 103.864 9.91418 103.675 10.2014 103.563C10.4834 103.454 10.7626 103.454 11.0391 103.563C11.3155 103.672 11.5754 103.878 11.8185 104.18C12.0669 104.48 12.2821 104.865 12.4641 105.335C12.6441 105.8 12.7444 106.23 12.7651 106.624C12.7889 107.011 12.7364 107.341 12.6076 107.613C12.4767 107.88 12.2703 108.068 11.9883 108.177C11.7011 108.288 11.4193 108.289 11.1428 108.18C10.8591 108.068 10.5956 107.861 10.3525 107.558C10.1073 107.251 9.89473 106.865 9.71472 106.4ZM10.2317 106.2C10.3611 106.534 10.511 106.812 10.6811 107.035C10.8461 107.259 11.0212 107.417 11.2063 107.507C11.3843 107.594 11.562 107.603 11.7395 107.535C11.9119 107.468 12.037 107.341 12.115 107.155C12.1857 106.965 12.2091 106.731 12.1851 106.452C12.1559 106.175 12.0766 105.87 11.9471 105.536C11.8136 105.191 11.6654 104.909 11.5025 104.69C11.3343 104.473 11.1613 104.321 10.9834 104.233C10.7982 104.143 10.6195 104.131 10.4471 104.198C10.2696 104.267 10.1454 104.396 10.0747 104.585C9.99676 104.772 9.97137 105.001 9.99854 105.272C10.0205 105.546 10.0982 105.855 10.2317 106.2Z" fill="#D05BFF"/>
<path d="M3.59586 101.337L3.44689 100.777L4.34797 100.538C4.82963 100.409 5.29571 100.375 5.74622 100.435C6.19132 100.496 6.60299 100.639 6.98124 100.863C7.3595 101.087 7.68179 101.383 7.94812 101.753L7.50949 102.261C7.2803 101.922 7.00452 101.648 6.68217 101.438C6.35441 101.229 6.00333 101.097 5.62894 101.04C5.2531 100.978 4.87577 100.997 4.49693 101.098L3.59586 101.337ZM3.56347 101.216L3.41883 100.672L4.34426 100.425C4.59321 100.359 4.82523 100.251 5.04032 100.101C5.25398 99.946 5.44547 99.7618 5.61479 99.5487C5.77727 99.3317 5.90819 99.094 6.00756 98.8358C6.10009 98.5736 6.15907 98.2943 6.18453 97.9978L6.81098 98.1962C6.76595 98.637 6.64302 99.0464 6.44221 99.4243C6.24139 99.8022 5.97387 100.125 5.63965 100.394C5.30544 100.662 4.92186 100.854 4.4889 100.969L3.56347 101.216ZM2.29229 98.2332L2.11311 97.5595L7.53582 96.1173L7.715 96.7911L2.29229 98.2332ZM4.41788 97.1725L4.07461 95.8818L4.64286 95.7306L4.98612 97.0214L4.41788 97.1725ZM9.95867 100.358L8.65902 95.4709L9.21103 95.3241L10.5107 100.211L9.95867 100.358ZM8.22957 100.818L8.04823 100.136L10.0452 99.6047L10.2266 100.287L8.22957 100.818Z" fill="#D05BFF"/>
<path d="M0.36028 86.5553L0.282526 85.8963L7.83216 85.0055L7.90992 85.6646L0.36028 86.5553ZM3.53906 87.4744L3.36781 86.0228L3.93507 85.9559L4.10633 87.4074L3.53906 87.4744ZM0.728891 88.2457L0.653105 87.6034L7.64382 86.7786L7.7196 87.4209L0.728891 88.2457ZM6.11133 91.4254L6.05326 90.9332C6.0093 90.5606 5.96682 90.2244 5.92582 89.9248C5.87861 89.6202 5.82225 89.3336 5.75673 89.0651C5.69055 88.7909 5.60981 88.5129 5.51452 88.2309L6.08225 88.0963C6.17886 88.3894 6.26058 88.6757 6.32741 88.9554C6.39359 89.2296 6.45061 89.5217 6.49848 89.8318C6.54569 90.1364 6.59193 90.4806 6.63721 90.8643L6.69528 91.3565L6.11133 91.4254ZM1.92358 91.9195L1.59287 89.1165L2.16014 89.0496L2.40915 91.1601L6.29659 90.7015L6.37828 91.3939L1.92358 91.9195Z" fill="#D05BFF"/>
<path d="M0.0800603 78.4436L0.0739303 77.7464L5.76891 77.6963L5.77504 78.3935L0.0800603 78.4436ZM2.57055 77.9428L2.55881 76.6073L3.13839 76.6022L3.15013 77.9377L2.57055 77.9428ZM1.04959 83.618L1.01015 79.1326L1.57293 79.1277L1.61237 83.6131L1.04959 83.618ZM2.00424 81.3667C2.00108 81.0084 2.0599 80.6914 2.18068 80.416C2.29587 80.1405 2.45919 79.9263 2.67065 79.7732C2.87651 79.6202 3.12224 79.5424 3.40783 79.5399C3.69342 79.5374 3.94327 79.6108 4.15739 79.7602C4.36592 79.9095 4.53018 80.1209 4.65019 80.3942C4.7702 80.6676 4.83178 80.9835 4.83493 81.3419C4.83808 81.7002 4.78206 82.0171 4.66688 82.2926C4.5517 82.568 4.3912 82.785 4.18538 82.9436C3.97392 83.0967 3.7254 83.1745 3.43981 83.177C3.15422 83.1795 2.90716 83.1061 2.69864 82.9567C2.48447 82.8018 2.31738 82.5876 2.19737 82.3143C2.07177 82.041 2.00739 81.7251 2.00424 81.3667ZM2.55021 81.3619C2.55322 81.7035 2.63685 81.98 2.80112 82.1914C2.95978 82.4028 3.17071 82.5073 3.4339 82.505C3.69709 82.5027 3.90615 82.3945 4.06107 82.1803C4.21599 81.9661 4.29195 81.6882 4.28895 81.3467C4.2859 80.9995 4.20506 80.723 4.04645 80.5172C3.88778 80.3057 3.67685 80.2012 3.41366 80.2035C3.15047 80.2058 2.94142 80.3141 2.78649 80.5282C2.62592 80.7369 2.54716 81.0148 2.55021 81.3619ZM0.108937 81.7278L0.102807 81.0307L1.31236 81.02L1.31849 81.7172L0.108937 81.7278ZM6.96965 82.4151L6.92511 77.3501L7.49629 77.3451L7.54082 82.4101L6.96965 82.4151ZM5.35691 82.4293L5.35085 81.7405L7.19878 81.7243L7.20484 82.4131L5.35691 82.4293Z" fill="#D05BFF"/>
<path d="M1.22892 70.5264L1.30475 69.9602L2.6535 70.1409C3.06979 70.1966 3.47068 70.304 3.85619 70.463C4.24244 70.6164 4.59777 70.8109 4.92217 71.0464C5.24657 71.282 5.52766 71.5456 5.76544 71.8374C6.00322 72.1291 6.18251 72.4356 6.30333 72.7569L5.68865 73.1068C5.58706 72.8107 5.43531 72.5305 5.23341 72.2662C5.02671 71.9955 4.78262 71.751 4.50113 71.5325C4.21964 71.314 3.91593 71.1349 3.58999 70.9952C3.25924 70.8492 2.92181 70.7531 2.57768 70.707L1.22892 70.5264ZM1.24565 70.4015L1.32036 69.8437L2.66912 70.0243C3.00214 70.0689 3.33871 70.066 3.67883 70.0155C4.01968 69.9594 4.34632 69.8619 4.65873 69.723C4.97114 69.584 5.25637 69.416 5.51441 69.2189C5.7732 69.0163 5.98704 68.7906 6.15594 68.5421L6.64856 69.0403C6.4593 69.3144 6.21751 69.5588 5.92319 69.7737C5.62961 69.9829 5.30367 70.1596 4.94537 70.3038C4.58226 70.4416 4.20215 70.5376 3.80505 70.5917C3.40314 70.6396 2.99959 70.6364 2.59441 70.5821L1.24565 70.4015ZM1.01551 67.1841L1.10806 66.493L8.64279 67.5022L8.55024 68.1932L1.01551 67.1841ZM4.13407 67.0593L4.32029 65.669L4.91141 65.7481L4.72519 67.1385L4.13407 67.0593Z" fill="#D05BFF"/>
<path d="M2.82461 58.7066L2.99175 58.0298L7.38732 59.1152L7.22018 59.792L2.82461 58.7066ZM4.82321 58.707L5.14541 57.4022L5.71627 57.5431L5.39407 58.8479L4.82321 58.707ZM6.5983 63.8522L7.74615 59.2038L10.2661 59.826L9.11821 64.4744L6.5983 63.8522ZM8.12126 59.9972L7.29965 63.3245L8.72678 63.6769L9.5484 60.3497L8.12126 59.9972ZM5.10622 64.2884L5.24919 63.7094C5.35928 63.2636 5.4552 62.8517 5.53696 62.4739C5.62006 62.0907 5.68893 61.7183 5.74358 61.3569C5.79956 60.99 5.84192 60.6082 5.87066 60.2115L6.43316 60.2812C6.40174 60.6888 6.36008 61.0794 6.30819 61.453C6.2522 61.8199 6.18471 62.1984 6.1057 62.5884C6.0226 62.9717 5.92466 63.3916 5.81189 63.8483L5.66891 64.4273L5.10622 64.2884ZM2.04405 63.5495L2.86365 60.2304L4.89425 60.7318L4.24381 63.3659L5.58939 63.6982L5.42426 64.3669L3.55676 63.9058L4.20921 61.2635L3.25507 61.0279L2.59859 63.6865L2.04405 63.5495Z" fill="#D05BFF"/>
<path d="M6.75289 47.5199L7.00228 46.9049L14.047 49.7619L13.7976 50.3769L6.75289 47.5199ZM9.09554 49.8568L9.64485 48.5024L10.1742 48.717L9.62487 50.0715L9.09554 49.8568ZM6.2614 49.1788L6.50449 48.5794L13.0276 51.2249L12.7846 51.8243L6.2614 49.1788ZM9.44588 54.5584L9.63214 54.0991C9.77315 53.7514 9.89788 53.4364 10.0063 53.154C10.1117 52.8644 10.2004 52.5861 10.2724 52.3192C10.3465 52.0471 10.4097 51.7646 10.4621 51.4716L11.0244 51.6271C10.9679 51.9305 10.9015 52.2208 10.8253 52.4981C10.7512 52.7702 10.6604 53.0537 10.5529 53.3485C10.4475 53.6381 10.3223 53.962 10.177 54.3201L9.99077 54.7793L9.44588 54.5584ZM5.53821 52.9736L6.59893 50.3581L7.12826 50.5728L6.32956 52.5422L9.957 54.0133L9.69497 54.6594L5.53821 52.9736Z" fill="#D05BFF"/>
<path d="M10.4041 40.3126L10.7352 39.6991L15.7472 42.4038L15.4161 43.0174L10.4041 40.3126ZM12.827 41.0761L13.4613 39.9007L13.9714 40.176L13.3371 41.3514L12.827 41.0761ZM8.75583 45.3124L10.8862 41.365L11.3814 41.6323L9.25111 45.5797L8.75583 45.3124ZM10.6785 43.8015C10.8487 43.4861 11.0532 43.2369 11.2919 43.0539C11.5257 42.8683 11.7722 42.7595 12.0312 42.7275C12.2854 42.6928 12.5381 42.7433 12.7895 42.879C13.0408 43.0146 13.2242 43.1995 13.3397 43.4336C13.4502 43.6651 13.4921 43.9295 13.4652 44.2268C13.4384 44.5241 13.3399 44.8305 13.1697 45.1459C12.9995 45.4613 12.7974 45.7118 12.5636 45.8975C12.3298 46.0831 12.0845 46.1957 11.8277 46.2353C11.5686 46.2673 11.3134 46.2154 11.0621 46.0798C10.8107 45.9442 10.6298 45.7606 10.5193 45.5292C10.4065 45.2901 10.3635 45.0219 10.3903 44.7246C10.4122 44.4246 10.5083 44.1169 10.6785 43.8015ZM11.159 44.0608C10.9967 44.3614 10.9366 44.6439 10.9784 44.9083C11.0153 45.1701 11.1496 45.3634 11.3812 45.4884C11.6129 45.6134 11.8482 45.6195 12.0872 45.5067C12.3263 45.3939 12.5269 45.1872 12.6892 44.8866C12.8541 44.5811 12.9167 44.2999 12.8771 44.0431C12.8402 43.7813 12.7059 43.588 12.4743 43.463C12.2427 43.338 12.0074 43.3319 11.7683 43.4447C11.527 43.5499 11.3239 43.7553 11.159 44.0608ZM8.84428 43.203L9.1754 42.5894L10.2399 43.1639L9.90876 43.7774L8.84428 43.203ZM14.5213 47.1162L16.9269 42.6587L17.4295 42.93L15.024 47.3875L14.5213 47.1162ZM13.102 46.3502L13.4291 45.7441L15.0554 46.6217L14.7283 47.2279L13.102 46.3502Z" fill="#D05BFF"/>
<path d="M14.4547 34.7923C14.7566 34.3543 15.0967 34.014 15.4748 33.7713C15.8529 33.5287 16.2394 33.3972 16.6343 33.3769C17.0292 33.3567 17.3995 33.4657 17.7453 33.7041C18.0957 33.9457 18.3317 34.2546 18.4532 34.6308C18.5747 35.0071 18.5893 35.4151 18.497 35.8548C18.4048 36.2945 18.2077 36.7334 17.9057 37.1714C17.6101 37.6002 17.2717 37.9382 16.8903 38.1854C16.5122 38.4281 16.1257 38.5596 15.7309 38.5798C15.336 38.6001 14.9634 38.4894 14.6129 38.2479C14.2672 38.0095 14.0335 37.7022 13.912 37.3259C13.7905 36.9497 13.7758 36.5417 13.8681 36.102C13.9636 35.6577 14.1591 35.2211 14.4547 34.7923ZM14.918 35.1117C14.6924 35.4391 14.5436 35.7684 14.4716 36.0997C14.3997 36.431 14.4058 36.7379 14.4899 37.0204C14.5694 37.2997 14.736 37.5267 14.9896 37.7015C15.2386 37.8731 15.51 37.948 15.8039 37.9262C16.0979 37.9044 16.3868 37.8009 16.6709 37.6158C16.9549 37.4307 17.2098 37.1745 17.4354 36.8472C17.6643 36.5152 17.8147 36.1836 17.8866 35.8523C17.9586 35.521 17.9509 35.2164 17.8636 34.9385C17.7794 34.6561 17.6128 34.429 17.3639 34.2574C17.1103 34.0826 16.8388 34.0077 16.5495 34.0327C16.2588 34.0499 15.9714 34.1511 15.6874 34.3362C15.4033 34.5213 15.1469 34.7798 14.918 35.1117ZM17.0601 40.7511L20.9696 35.0801L21.4468 35.409L17.5373 41.0801L17.0601 40.7511Z" fill="#D05BFF"/>
<path d="M21.6994 34.2461L26.2002 29.0319L26.639 29.4107L22.1382 34.6248L21.6994 34.2461ZM22.4866 30.8531L22.9367 30.3317L24.3483 31.5502L23.8982 32.0716L22.4866 30.8531ZM18.0706 30.0041L21.4627 26.0744L23.205 27.5783L20.274 30.9739L21.4249 31.9674L20.9748 32.4888L19.4042 31.1331L22.3352 27.7375L21.445 26.9691L18.503 30.3774L18.0706 30.0041ZM20.7523 32.2967L24.2486 28.2462L24.681 28.6194L21.1847 32.6699L20.7523 32.2967Z" fill="#D05BFF"/>
<path d="M28.8613 18.3087L29.3867 17.8504L31.9379 20.7747L31.4125 21.2331L28.8613 18.3087ZM27.3572 20.1114L27.9269 19.6144C28.354 20.1039 28.62 20.6261 28.7251 21.1809C28.8265 21.7316 28.7832 22.3081 28.5953 22.9105C28.408 23.505 28.0868 24.1122 27.6318 24.7321L27.0719 24.4737C27.3781 24.058 27.6176 23.6595 27.7904 23.2784C27.9632 22.8972 28.0694 22.5333 28.1089 22.1868C28.1526 21.8365 28.1312 21.5096 28.0447 21.206C27.9582 20.9025 27.8082 20.6283 27.5947 20.3835L27.3572 20.1114ZM25.3254 21.884L27.7054 19.8076L28.0809 20.2381L25.7009 22.3144L25.3254 21.884ZM28.4724 24.2774L32.1753 21.0469L33.3902 22.4395L30.2253 25.2006L30.9819 26.0677L30.4628 26.5205L29.3639 25.2609L32.5225 22.5054L32.0144 21.923L28.8369 24.6952L28.4724 24.2774ZM30.2861 26.318L34.1663 22.9329L34.5307 23.3507L30.6506 26.7358L30.2861 26.318Z" fill="#D05BFF"/>
<path d="M35.8017 13.1738L36.3736 12.7751L40.7262 19.0179L40.1543 19.4166L35.8017 13.1738ZM33.4231 15.549C33.7309 15.3344 34.0644 15.235 34.4236 15.2508C34.7841 15.2588 35.1447 15.3795 35.5054 15.6128C35.8706 15.8428 36.2069 16.1784 36.5144 16.6194C36.8218 17.0604 37.0204 17.492 37.11 17.9142C37.2041 18.3332 37.1943 18.7156 37.0803 19.0613C36.9709 19.4038 36.7623 19.6823 36.4546 19.8969C36.1468 20.1115 35.811 20.2125 35.4472 20.1999C35.0835 20.1873 34.719 20.066 34.3537 19.8359C33.9931 19.6026 33.6591 19.2655 33.3516 18.8245C33.0441 18.3835 32.8433 17.9535 32.7491 17.5344C32.6596 17.1122 32.6733 16.7305 32.7905 16.3894C32.9045 16.0437 33.1153 15.7636 33.4231 15.549ZM33.7786 16.0589C33.5719 16.203 33.4385 16.3984 33.3784 16.6451C33.3197 16.8841 33.3348 17.1603 33.4236 17.4738C33.5093 17.7827 33.6691 18.1048 33.9029 18.4401C34.1367 18.7755 34.3853 19.0391 34.6487 19.2309C34.909 19.4181 35.1629 19.5277 35.4106 19.5598C35.6629 19.5888 35.8923 19.5312 36.0991 19.387C36.3012 19.2461 36.43 19.0539 36.4855 18.8104C36.5456 18.5637 36.5328 18.2859 36.4472 17.977C36.3583 17.6635 36.1969 17.339 35.9631 17.0037C35.7293 16.6684 35.4823 16.4071 35.2221 16.2199C34.9586 16.0281 34.7024 15.92 34.4533 15.8957C34.2057 15.8636 33.9808 15.918 33.7786 16.0589Z" fill="#D05BFF"/>
<path d="M43.4253 15.5473L49.5768 12.4483L49.8376 12.9659L43.6861 16.065L43.4253 15.5473ZM45.3584 12.5324L45.9735 12.2225L46.8692 14.0004L46.2541 14.3103L45.3584 12.5324ZM41.6625 10.2559L42.2851 9.94218L42.8936 11.15L46.3444 9.41145L45.7359 8.20367L46.3511 7.89376L48.1009 11.3671L43.4123 13.7292L41.6625 10.2559ZM43.1506 11.6601L43.778 12.9054L47.2288 11.1669L46.6014 9.92157L43.1506 11.6601Z" fill="#D05BFF"/>
<path d="M52.9685 6.89528L54.7707 6.22267L54.9704 6.75781L53.1682 7.43042L52.9685 6.89528ZM53.6694 4.40115L54.3226 4.15736L56.27 9.37501L55.6168 9.61879L53.6694 4.40115ZM52.1785 12.2738L56.9161 10.5057L57.1158 11.0408L52.3782 12.809L52.1785 12.2738ZM51.5558 10.6054L52.2011 10.3646L52.9237 12.3006L52.2784 12.5414L51.5558 10.6054ZM50.6065 6.54848L51.1417 6.34875L51.3561 6.92324C51.5166 7.35346 51.5845 7.79139 51.5595 8.23704C51.5379 8.67549 51.4304 9.09218 51.2371 9.4871C51.0418 9.87678 50.7758 10.2211 50.4391 10.5201L49.9039 10.1192C50.131 9.92681 50.3227 9.7118 50.4791 9.47413C50.6407 9.23449 50.7646 8.98201 50.8509 8.7167C50.9372 8.45138 50.9772 8.18239 50.9711 7.90972C50.965 7.63705 50.9149 7.3748 50.8209 7.12297L50.6065 6.54848ZM50.7324 6.50148L51.2676 6.30176L51.482 6.87625C51.5956 7.18055 51.777 7.45054 52.0264 7.68623C52.2757 7.92192 52.5737 8.10361 52.9202 8.2313C53.2648 8.35375 53.6301 8.41167 54.0161 8.40506L53.8795 9.04782C53.4383 9.05107 53.0236 8.97275 52.6352 8.81288C52.2448 8.64776 51.9017 8.41717 51.6059 8.12111C51.3154 7.82309 51.0957 7.47471 50.9469 7.07598L50.7324 6.50148ZM48.9102 6.83193L52.7112 5.41328L52.911 5.94842L49.1099 7.36707L48.9102 6.83193Z" fill="#D05BFF"/>
<path d="M61.5959 2.13956L62.2637 1.97084L64.1258 9.34125L63.458 9.50997L61.5959 2.13956ZM62.8744 5.03954L64.2345 4.69593L64.3785 5.26601L63.0184 5.60963L62.8744 5.03954ZM56.8612 4.59203L61.202 3.49535L61.3419 4.04915L57.0011 5.14583L56.8612 4.59203ZM59.3604 5.19089C59.7079 5.1031 60.0332 5.0989 60.3363 5.17828C60.6448 5.25629 60.9073 5.40368 61.1238 5.62045C61.3443 5.83043 61.4964 6.10101 61.5801 6.4322C61.6638 6.7634 61.6591 7.07647 61.5662 7.37143C61.4786 7.66502 61.3176 7.91941 61.0832 8.13459C60.8528 8.34297 60.5639 8.49105 60.2164 8.57884C59.8689 8.66663 59.5416 8.67424 59.2345 8.60166C58.9314 8.52228 58.6689 8.37489 58.447 8.15948C58.225 7.94408 58.0722 7.67078 57.9886 7.33959C57.9049 7.0084 57.9102 6.69803 58.0046 6.4085C58.0976 6.11354 58.2586 5.85916 58.4876 5.64535C58.722 5.43017 59.013 5.27868 59.3604 5.19089ZM59.5024 5.75284C59.2798 5.80908 59.094 5.90801 58.9449 6.04963C58.7959 6.19126 58.691 6.35926 58.6304 6.55363C58.5752 6.74663 58.5757 6.95444 58.632 7.17704C58.6882 7.39965 58.7871 7.58548 58.9287 7.73453C59.0744 7.87677 59.2465 7.97482 59.4449 8.02865C59.642 8.07706 59.8518 8.07314 60.0744 8.0169C60.2916 7.96203 60.4754 7.8665 60.6258 7.7303C60.7749 7.58868 60.877 7.42137 60.9322 7.22836C60.9915 7.02856 60.993 6.81736 60.9367 6.59475C60.8805 6.37214 60.7795 6.18972 60.6338 6.04747C60.4936 5.90385 60.3243 5.80512 60.1258 5.75129C59.9274 5.69745 59.7196 5.69797 59.5024 5.75284ZM58.4424 3.0316L59.1183 2.86082L59.4558 4.19645L58.7798 4.36723L58.4424 3.0316Z" fill="#D05BFF"/>
<path d="M68.3231 3.66448L69.7707 3.46283L69.8507 4.03689L68.4031 4.23853L68.3231 3.66448ZM66.6484 1.87077L67.1892 1.79544L67.3897 3.23474C67.4438 3.62299 67.4555 4.01149 67.4248 4.40024C67.3997 4.78822 67.3327 5.15941 67.2237 5.51383C67.1203 5.86748 66.979 6.19248 66.7998 6.48884C66.6206 6.78521 66.4067 7.03551 66.1581 7.23976L65.6536 6.7842C65.8871 6.59336 66.0902 6.36718 66.263 6.10564C66.4358 5.8441 66.5714 5.55947 66.6699 5.25174C66.7731 4.93769 66.8388 4.61757 66.8669 4.29138C66.8997 3.95887 66.8937 3.63176 66.8489 3.31007L66.6484 1.87077ZM66.7815 1.85222L67.314 1.77806L67.511 3.1924C67.5527 3.49191 67.6281 3.78956 67.7372 4.08534C67.851 4.3748 67.991 4.64931 68.1572 4.90886C68.3282 5.1621 68.5266 5.3889 68.7524 5.58926C68.9782 5.78962 69.2235 5.94769 69.4884 6.06345L69.1716 6.65037C68.8766 6.52184 68.606 6.34468 68.3597 6.1189C68.1126 5.88758 67.8946 5.62111 67.7055 5.3195C67.5157 5.01235 67.3597 4.68354 67.2374 4.33306C67.115 3.98259 67.0288 3.62709 66.9786 3.26657L66.7815 1.85222ZM70.7181 0.582992L71.3837 0.490281L72.4324 8.01959L71.7669 8.1123L70.7181 0.582992ZM69.2093 0.954301L69.8582 0.863908L70.8317 7.85243L70.1827 7.94283L69.2093 0.954301Z" fill="#D05BFF"/>
</svg>
